<?xml version="1.0" encoding="UTF-8" standalone="no"?>
<!-- Created with Inkscape (http://www.inkscape.org/) -->

<svg
   width="16mm"
   height="16mm"
   viewBox="0 0 15.999999 15.999999"
   version="1.1"
   id="svg2071"
   inkscape:version="1.2.1 (9c6d41e410, 2022-07-14)"
   sodipodi:docname="icon.svg"
   inkscape:export-filename="icon.svg"
   inkscape:export-xdpi="73.037262"
   inkscape:export-ydpi="73.037262"
   xmlns:inkscape="http://www.inkscape.org/namespaces/inkscape"
   xmlns:sodipodi="http://sodipodi.sourceforge.net/DTD/sodipodi-0.dtd"
   xmlns="http://www.w3.org/2000/svg"
   xmlns:svg="http://www.w3.org/2000/svg">
  <sodipodi:namedview
     id="namedview2073"
     pagecolor="#ffffff"
     bordercolor="#000000"
     borderopacity="0.25"
     inkscape:showpageshadow="2"
     inkscape:pageopacity="0.0"
     inkscape:pagecheckerboard="0"
     inkscape:deskcolor="#d1d1d1"
     inkscape:document-units="mm"
     showgrid="false"
     inkscape:zoom="5.9081369"
     inkscape:cx="92.076404"
     inkscape:cy="39.267878"
     inkscape:window-width="1920"
     inkscape:window-height="1009"
     inkscape:window-x="-8"
     inkscape:window-y="-8"
     inkscape:window-maximized="1"
     inkscape:current-layer="layer1" />
  <defs
     id="defs2068" />
  <g
     inkscape:label="Layer 1"
     inkscape:groupmode="layer"
     id="layer1"
     transform="translate(330.03534,639.33097)">
    <path
       id="path1522"
       style="fill:#ffffff;stroke:#ffffff;stroke-width:0.14251;stroke-dasharray:none;stroke-opacity:1"
       d="m -318.65636,-624.89245 v 0 l -0.10079,0.98402 -0.75684,0.003 -0.16302,-0.98688 h -5.18238 l -0.13996,0.98402 -0.75744,8e-5 -0.1351,-0.98408 c -0.10174,-0.7114 -0.8521,-6.53628 0.49102,-13.69324 l 0.10633,0.61556 2.83841,-0.3433 -4.5e-4,-0.23155 c 10e-4,-0.25232 0.40406,-0.24833 0.40542,0 v 0.23522 l 2.79681,0.3086 0.11923,-0.56329 c 1.37414,7.09497 0.58054,12.94906 0.47876,13.672 z m -6.30302,-10.87071 2.49469,0.0309 0.006,-2.2589 -2.77047,0.30133 z m 2.91226,-2.22789 -0.008,2.25476 2.43643,-0.0229 0.30279,-1.93244 z"
       sodipodi:nodetypes="cccccccccccccccccccccccccccc" />
    <rect
       style="fill:#000080;stroke:#000000;stroke-width:0.01;stroke-dasharray:none"
       id="rect12720"
       width="5.8665557"
       height="8.4639626"
       x="-325.15402"
       y="-634.58398" />
    <path
       id="rect12774"
       style="fill:#00ffff;stroke:none;stroke-width:0.01"
       d="m -325.10106,-637.59214 2.53904,-0.26917 -0.0158,1.9994 -2.28572,-0.0316 z"
       sodipodi:nodetypes="ccccc" />
    <path
       id="path12873"
       style="fill:#00ffff;stroke:none;stroke-width:0.00984138"
       d="m -319.47559,-637.60804 -2.45892,-0.23752 0.0153,1.99956 2.19726,-0.0158 z"
       sodipodi:nodetypes="ccccc" />
  </g>
</svg>
