<?xml version="1.0" encoding="UTF-8" standalone="no"?>
<svg
   width="418.20316"
   height="418.20316"
   viewBox="0 0 110.64958 110.64958"
   version="1.1"
   id="svg1144"
   xmlns:xlink="http://www.w3.org/1999/xlink"
   xmlns="http://www.w3.org/2000/svg"
   xmlns:svg="http://www.w3.org/2000/svg"
   xmlns:rdf="http://www.w3.org/1999/02/22-rdf-syntax-ns#"
   xmlns:cc="http://creativecommons.org/ns#"
   xmlns:dc="http://purl.org/dc/elements/1.1/">
  <defs
     id="defs1138">
    <radialGradient
       xlink:href="#linearGradient5754"
       id="radialGradient510"
       gradientUnits="userSpaceOnUse"
       gradientTransform="matrix(0.15926858,0,0,0.14685618,-43.431284,-33.276248)"
       cx="372"
       cy="490.09"
       r="64.5" />
    <linearGradient
       id="linearGradient5754">
      <stop
         id="stop5756"
         style="stop-color:#feffff"
         offset="0" />
      <stop
         id="stop5758"
         style="stop-color:#feffff;stop-opacity:0"
         offset="1" />
    </linearGradient>
    <radialGradient
       xlink:href="#linearGradient5746"
       id="radialGradient512"
       gradientUnits="userSpaceOnUse"
       gradientTransform="matrix(0.15926858,0,0,0.14676066,-43.431284,-33.228966)"
       cx="372"
       cy="490.09"
       r="64" />
    <linearGradient
       id="linearGradient5746">
      <stop
         id="stop5748"
         style="stop-color:#000000"
         offset="0" />
      <stop
         id="stop5750"
         style="stop-color:#feffff;stop-opacity:0"
         offset="1" />
    </linearGradient>
    <linearGradient
       id="linearGradient5563"
       y2="231.08"
       gradientUnits="userSpaceOnUse"
       x2="372.04999"
       y1="365.79001"
       x1="383.95999">
      <stop
         id="stop5559"
         style="stop-color:#8b0000"
         offset="0" />
      <stop
         id="stop5561"
         style="stop-color:#a40000;stop-opacity:0"
         offset="1" />
    </linearGradient>
    <linearGradient
       id="linearGradient5571"
       y2="523.40002"
       gradientUnits="userSpaceOnUse"
       x2="372.03"
       y1="372.06"
       x1="382.95001">
      <stop
         id="stop5567"
         style="stop-color:#173560"
         offset="0" />
      <stop
         id="stop5569"
         style="stop-color:#204a87;stop-opacity:0"
         offset="1" />
    </linearGradient>
    <linearGradient
       id="linearGradient5581"
       y2="223.31"
       xlink:href="#linearGradient5575"
       gradientUnits="userSpaceOnUse"
       x2="372.10999"
       gradientTransform="matrix(1,0,0,0.92286,0,14.363)"
       y1="372.29999"
       x1="372.10999" />
    <linearGradient
       id="linearGradient5575">
      <stop
         id="stop5577"
         style="stop-color:#f2f2f2"
         offset="0" />
      <stop
         id="stop5579"
         style="stop-color:#f2f2f2;stop-opacity:0"
         offset="1" />
    </linearGradient>
    <linearGradient
       id="linearGradient5585"
       y2="223.31"
       xlink:href="#linearGradient5575"
       gradientUnits="userSpaceOnUse"
       x2="372.10999"
       gradientTransform="matrix(1,0,0,-0.91048,0,725.31)"
       y1="372.29999"
       x1="372.10999" />
    <linearGradient
       id="linearGradient5601"
       y2="386.54999"
       gradientUnits="userSpaceOnUse"
       x2="386.54999"
       y1="362.60999"
       x1="363.45001">
      <stop
         id="stop5597"
         style="stop-color:#eeeeec"
         offset="0" />
      <stop
         id="stop5599"
         style="stop-color:#d3d7cf;stop-opacity:0"
         offset="1" />
    </linearGradient>
    <linearGradient
       id="linearGradient5609"
       y2="370.92999"
       gradientUnits="userSpaceOnUse"
       x2="307.95999"
       y1="335.03"
       x1="286.01999">
      <stop
         id="stop5605"
         style="stop-color:#888a85"
         offset="0" />
      <stop
         id="stop5607"
         style="stop-color:#d3d7cf"
         offset="1" />
    </linearGradient>
    <linearGradient
       id="linearGradient5661"
       y2="372.04999"
       gradientUnits="userSpaceOnUse"
       x2="372.04999"
       gradientTransform="matrix(0.84331,-0.53743,0.53743,0.84331,-141.65,258.25)"
       y1="372.04999"
       x1="372.04999">
      <stop
         id="stop5617"
         style="stop-color:#888a85"
         offset="0" />
      <stop
         id="stop5619"
         style="stop-color:#babdb6"
         offset="1" />
    </linearGradient>
    <linearGradient
       id="linearGradient5659"
       y2="372.04999"
       gradientUnits="userSpaceOnUse"
       x2="372.04999"
       gradientTransform="matrix(0.53743,0.84331,-0.84331,0.53743,485.84,-141.65)"
       y1="372.04999"
       x1="372.04999">
      <stop
         id="stop5641"
         style="stop-color:#888a85"
         offset="0" />
      <stop
         id="stop5643"
         style="stop-color:#d3d7cf"
         offset="1" />
    </linearGradient>
    <linearGradient
       id="linearGradient5504"
       y2="147.48"
       gradientUnits="userSpaceOnUse"
       x2="373.37"
       y1="435.01999"
       x1="666.14001"
       gradientTransform="matrix(0.24985662,0,0,0.24985662,-239.97757,34.648195)">
      <stop
         id="stop5498"
         style="stop-color:#72cccf;stop-opacity:.65269"
         offset="0" />
      <stop
         id="stop5500"
         style="stop-color:#fcffff;stop-opacity:.23952"
         offset="1" />
    </linearGradient>
    <linearGradient
       id="linearGradient5494"
       y2="435.01999"
       gradientUnits="userSpaceOnUse"
       x2="666.14001"
       y1="150.48"
       x1="341.19"
       gradientTransform="matrix(0.24985662,0,0,0.24985662,-239.97757,34.648195)">
      <stop
         id="stop5490"
         style="stop-color:#72cccf"
         offset="0" />
      <stop
         id="stop5492"
         style="stop-color:#207a87"
         offset="1" />
    </linearGradient>
    <radialGradient
       id="radialGradient5838-5"
       gradientUnits="userSpaceOnUse"
       cy="490.09"
       cx="372"
       gradientTransform="matrix(0.1928786,0,0,0.17776702,-172.91531,58.346071)"
       r="64">
      <stop
         id="stop5834-1"
         style="stop-color:#fcfefe"
         offset="0" />
      <stop
         id="stop5836-4"
         style="stop-color:#fcfefe;stop-opacity:0"
         offset="1" />
    </radialGradient>
    <linearGradient
       id="linearGradient5782"
       y2="322.95999"
       gradientUnits="userSpaceOnUse"
       x2="499.92001"
       y1="775.13"
       x1="767.84003"
       gradientTransform="matrix(0.24985662,0,0,0.24985662,-82.277814,50.139087)">
      <stop
         id="stop5778"
         style="stop-color:#207a87"
         offset="0" />
      <stop
         id="stop5780"
         style="stop-color:#207a87;stop-opacity:0"
         offset="1" />
    </linearGradient>
    <linearGradient
       id="linearGradient5784"
       y2="129.17999"
       gradientUnits="userSpaceOnUse"
       x2="466"
       y1="493.45001"
       x1="686.40997"
       gradientTransform="matrix(0.24985662,0,0,0.24985662,-82.277814,50.139087)">
      <stop
         id="stop5788"
         style="stop-color:#72cccf;stop-opacity:0"
         offset="0" />
      <stop
         id="stop5790"
         style="stop-color:#cc00bb;stop-opacity:0"
         offset="1" />
    </linearGradient>
    <linearGradient
       xlink:href="#linearGradient5504"
       id="linearGradient402"
       gradientUnits="userSpaceOnUse"
       gradientTransform="matrix(0.24985662,0,0,0.24985662,-239.97757,34.648195)"
       x1="666.14001"
       y1="435.01999"
       x2="373.37"
       y2="147.48" />
    <linearGradient
       xlink:href="#linearGradient5494"
       id="linearGradient404"
       gradientUnits="userSpaceOnUse"
       gradientTransform="matrix(0.24985662,0,0,0.24985662,-239.97757,34.648195)"
       x1="341.19"
       y1="150.48"
       x2="666.14001"
       y2="435.01999" />
    <radialGradient
       xlink:href="#radialGradient5838-5"
       id="radialGradient406"
       gradientUnits="userSpaceOnUse"
       gradientTransform="matrix(0.1928786,0,0,0.17776702,-172.91531,58.346071)"
       cx="372"
       cy="490.09"
       r="64" />
    <linearGradient
       xlink:href="#linearGradient5782"
       id="linearGradient408"
       gradientUnits="userSpaceOnUse"
       gradientTransform="matrix(0.24985662,0,0,0.24985662,-82.277814,50.139087)"
       x1="767.84003"
       y1="775.13"
       x2="499.92001"
       y2="322.95999" />
    <linearGradient
       xlink:href="#linearGradient5784"
       id="linearGradient410"
       gradientUnits="userSpaceOnUse"
       gradientTransform="matrix(0.24985662,0,0,0.24985662,-82.277814,50.139087)"
       x1="686.40997"
       y1="493.45001"
       x2="466"
       y2="129.17999" />
    <radialGradient
       xlink:href="#linearGradient5754"
       id="radialGradient2486"
       gradientUnits="userSpaceOnUse"
       gradientTransform="matrix(0.15926858,0,0,0.14685618,-43.431284,-33.276248)"
       cx="372"
       cy="490.09"
       r="64.5" />
    <radialGradient
       xlink:href="#linearGradient5746"
       id="radialGradient2488"
       gradientUnits="userSpaceOnUse"
       gradientTransform="matrix(0.15926858,0,0,0.14676066,-43.431284,-33.228966)"
       cx="372"
       cy="490.09"
       r="64" />
    <linearGradient
       xlink:href="#linearGradient5563"
       id="linearGradient2490"
       gradientUnits="userSpaceOnUse"
       x1="383.95999"
       y1="365.79001"
       x2="372.04999"
       y2="231.08" />
    <linearGradient
       xlink:href="#linearGradient5571"
       id="linearGradient2492"
       gradientUnits="userSpaceOnUse"
       x1="382.95001"
       y1="372.06"
       x2="372.03"
       y2="523.40002" />
    <linearGradient
       xlink:href="#linearGradient5575"
       id="linearGradient2494"
       gradientUnits="userSpaceOnUse"
       gradientTransform="matrix(1,0,0,0.92286,0,14.363)"
       x1="372.10999"
       y1="372.29999"
       x2="372.10999"
       y2="223.31" />
    <linearGradient
       xlink:href="#linearGradient5575"
       id="linearGradient2496"
       gradientUnits="userSpaceOnUse"
       gradientTransform="matrix(1,0,0,-0.91048,0,725.31)"
       x1="372.10999"
       y1="372.29999"
       x2="372.10999"
       y2="223.31" />
    <linearGradient
       xlink:href="#linearGradient5601"
       id="linearGradient2498"
       gradientUnits="userSpaceOnUse"
       x1="363.45001"
       y1="362.60999"
       x2="386.54999"
       y2="386.54999" />
    <linearGradient
       xlink:href="#linearGradient5609"
       id="linearGradient2500"
       gradientUnits="userSpaceOnUse"
       x1="286.01999"
       y1="335.03"
       x2="307.95999"
       y2="370.92999" />
    <linearGradient
       xlink:href="#linearGradient5661"
       id="linearGradient2502"
       gradientUnits="userSpaceOnUse"
       gradientTransform="matrix(0.84331,-0.53743,0.53743,0.84331,-141.65,258.25)"
       x1="372.04999"
       y1="372.04999"
       x2="372.04999"
       y2="372.04999" />
    <linearGradient
       xlink:href="#linearGradient5659"
       id="linearGradient2504"
       gradientUnits="userSpaceOnUse"
       gradientTransform="matrix(0.53743,0.84331,-0.84331,0.53743,485.84,-141.65)"
       x1="372.04999"
       y1="372.04999"
       x2="372.04999"
       y2="372.04999" />
    <linearGradient
       xlink:href="#linearGradient5563"
       id="linearGradient2516"
       gradientUnits="userSpaceOnUse"
       x1="383.95999"
       y1="365.79001"
       x2="372.04999"
       y2="231.08" />
    <linearGradient
       xlink:href="#linearGradient5571"
       id="linearGradient2518"
       gradientUnits="userSpaceOnUse"
       x1="382.95001"
       y1="372.06"
       x2="372.03"
       y2="523.40002" />
    <linearGradient
       xlink:href="#linearGradient5601"
       id="linearGradient2520"
       gradientUnits="userSpaceOnUse"
       x1="363.45001"
       y1="362.60999"
       x2="386.54999"
       y2="386.54999" />
    <linearGradient
       xlink:href="#linearGradient5609"
       id="linearGradient2522"
       gradientUnits="userSpaceOnUse"
       x1="286.01999"
       y1="335.03"
       x2="307.95999"
       y2="370.92999" />
    <linearGradient
       xlink:href="#linearGradient5661"
       id="linearGradient2524"
       gradientUnits="userSpaceOnUse"
       gradientTransform="matrix(0.84331,-0.53743,0.53743,0.84331,-141.65,258.25)"
       x1="372.04999"
       y1="372.04999"
       x2="372.04999"
       y2="372.04999" />
    <linearGradient
       xlink:href="#linearGradient5659"
       id="linearGradient2526"
       gradientUnits="userSpaceOnUse"
       gradientTransform="matrix(0.53743,0.84331,-0.84331,0.53743,485.84,-141.65)"
       x1="372.04999"
       y1="372.04999"
       x2="372.04999"
       y2="372.04999" />
  </defs>
  <metadata
     id="metadata1141">
    <rdf:RDF>
      <cc:Work
         rdf:about="">
        <dc:format>image/svg+xml</dc:format>
        <dc:type
           rdf:resource="http://purl.org/dc/dcmitype/StillImage" />
      </cc:Work>
    </rdf:RDF>
  </metadata>
  <g
     id="layer1"
     transform="translate(-2.4000511,-0.26726913)">
    <g
       id="g462"
       transform="translate(0.61031006,-0.34018895)">
      <g
         id="g460"
         transform="matrix(0.26458443,9.250286e-5,-9.250286e-5,0.26458443,-40.462343,-43.424772)">
        <path
           id="path440"
           style="fill:#cc0000;stroke:#a40000;stroke-width:1.4;stroke-linecap:round;stroke-linejoin:round"
           d="m 371.98,186.03 -11.25,167.34 c -6.3067,3.8134 -10.5,10.74 -10.5,18.656 h 9.25 25 9.3438 c 0,-7.9414 -4.2441,-14.882 -10.594,-18.688 l -11.25,-167.31 z" />
        <path
           id="path442"
           style="fill:#3465a4;stroke:#204a87;stroke-width:1.4;stroke-linecap:round;stroke-linejoin:round"
           d="M 372.02,558.06 360.77,390.72 c -6.3067,-3.8134 -10.5,-10.74 -10.5,-18.656 h 9.25 25 9.3438 c 0,7.9414 -4.2441,14.882 -10.594,18.688 l -11.25,167.31 z" />
        <path
           id="path444"
           style="fill:url(#linearGradient2516)"
           d="m 372.03,186.97 v 185.06 h 12.438 9.3438 c 0,-7.9414 -4.2441,-14.882 -10.594,-18.688 l -11.188,-166.38 z" />
        <path
           id="path446"
           style="fill:url(#linearGradient2518)"
           d="m 372.03,372.06 v 186 l 11.25,-167.31 c 6.3497,-3.8056 10.594,-10.746 10.594,-18.688 h -9.3438 -12.5 z" />
        <path
           id="path448"
           style="fill:#f2f2f2;stroke:url(#linearGradient5581)"
           d="m 371.94,186.18 0.35355,171.3" />
        <path
           id="path450"
           style="fill:#f2f2f2;stroke:url(#linearGradient5585)"
           d="m 371.94,555.8 0.35355,-169" />
        <path
           id="path452"
           style="fill:url(#linearGradient2520)"
           d="m 372.05,357.55 c -8.0081,0 -14.5,6.4919 -14.5,14.5 0,8.0081 6.4919,14.5 14.5,14.5 8.0081,0 14.5,-6.4919 14.5,-14.5 0,-8.0081 -6.4919,-14.5 -14.5,-14.5 z m 0,2.125 c 6.8366,0 12.406,5.5384 12.406,12.375 0,6.8366 -5.5697,12.406 -12.406,12.406 -6.8366,0 -12.375,-5.5697 -12.375,-12.406 0,-6.8366 5.5384,-12.375 12.375,-12.375 z" />
        <ellipse
           id="ellipse454"
           style="fill:url(#linearGradient2522)"
           transform="matrix(0.83362,0,0,0.51521,121.23,187.06)"
           cx="300.87393"
           cy="359.05533"
           rx="14.849242"
           ry="24.026579" />
        <path
           id="path456"
           style="fill:url(#linearGradient2524)"
           d="m 366.77,363.77 c 0.33036,-0.21053 0.76579,-0.11406 0.97632,0.21629 l 5.3028,7.4162 4.4828,7.9387 c 0.21053,0.33036 0.11408,0.7658 -0.21628,0.97633 -0.33036,0.21053 -0.7658,0.11407 -0.97633,-0.21628 l -5.4146,-7.3449 -4.371,-8.01 c -0.21053,-0.33035 -0.11407,-0.76579 0.21629,-0.97633 z" />
        <path
           id="path458"
           style="fill:url(#linearGradient2526)"
           d="m 380.32,366.77 c 0.21053,0.33036 0.11407,0.76579 -0.21629,0.97633 l -7.4874,5.1909 -7.8675,4.5946 c -0.33035,0.21053 -0.76579,0.11408 -0.97633,-0.21628 -0.21053,-0.33036 -0.11407,-0.7658 0.21628,-0.97633 l 7.3924,-5.34 7.9625,-4.4456 c 0.33035,-0.21053 0.7658,-0.11407 0.97633,0.21629 z" />
      </g>
    </g>
    <ellipse
       id="path5762"
       style="fill:url(#radialGradient2486);stroke:url(#radialGradient2488);stroke-width:0.264581"
       cx="15.816627"
       cy="38.696632"
       rx="10.19319"
       ry="9.3926315" />
    <g
       id="g653"
       transform="translate(0.61031006,-0.34018895)">
      <g
         id="g5663"
         transform="matrix(0.26458443,9.250286e-5,-9.250286e-5,0.26458443,-40.462343,-43.424772)">
        <path
           id="path5435"
           style="fill:#cc0000;stroke:#a40000;stroke-width:1.4;stroke-linecap:round;stroke-linejoin:round"
           d="m 371.98,186.03 -11.25,167.34 c -6.3067,3.8134 -10.5,10.74 -10.5,18.656 h 9.25 25 9.3438 c 0,-7.9414 -4.2441,-14.882 -10.594,-18.688 l -11.25,-167.31 z" />
        <path
           id="path5459"
           style="fill:#3465a4;stroke:#204a87;stroke-width:1.4;stroke-linecap:round;stroke-linejoin:round"
           d="M 372.02,558.06 360.77,390.72 c -6.3067,-3.8134 -10.5,-10.74 -10.5,-18.656 h 9.25 25 9.3438 c 0,7.9414 -4.2441,14.882 -10.594,18.688 l -11.25,167.31 z" />
        <path
           id="path5547"
           style="fill:url(#linearGradient2490)"
           d="m 372.03,186.97 v 185.06 h 12.438 9.3438 c 0,-7.9414 -4.2441,-14.882 -10.594,-18.688 l -11.188,-166.38 z" />
        <path
           id="path5552"
           style="fill:url(#linearGradient2492)"
           d="m 372.03,372.06 v 186 l 11.25,-167.31 c 6.3497,-3.8056 10.594,-10.746 10.594,-18.688 h -9.3438 -12.5 z" />
        <path
           id="path5573"
           style="fill:#f2f2f2;stroke:url(#linearGradient2494)"
           d="m 371.94,186.18 0.35355,171.3" />
        <path
           id="path5583"
           style="fill:#f2f2f2;stroke:url(#linearGradient2496)"
           d="m 371.94,555.8 0.35355,-169" />
        <path
           id="path5589"
           style="fill:url(#linearGradient2498)"
           d="m 372.05,357.55 c -8.0081,0 -14.5,6.4919 -14.5,14.5 0,8.0081 6.4919,14.5 14.5,14.5 8.0081,0 14.5,-6.4919 14.5,-14.5 0,-8.0081 -6.4919,-14.5 -14.5,-14.5 z m 0,2.125 c 6.8366,0 12.406,5.5384 12.406,12.375 0,6.8366 -5.5697,12.406 -12.406,12.406 -6.8366,0 -12.375,-5.5697 -12.375,-12.406 0,-6.8366 5.5384,-12.375 12.375,-12.375 z" />
        <ellipse
           id="path5591"
           style="fill:url(#linearGradient2500)"
           transform="matrix(0.83362,0,0,0.51521,121.23,187.06)"
           cx="300.87393"
           cy="359.05533"
           rx="14.849242"
           ry="24.026579" />
        <path
           id="rect5611"
           style="fill:url(#linearGradient2502)"
           d="m 366.77,363.77 c 0.33036,-0.21053 0.76579,-0.11406 0.97632,0.21629 l 5.3028,7.4162 4.4828,7.9387 c 0.21053,0.33036 0.11408,0.7658 -0.21628,0.97633 -0.33036,0.21053 -0.7658,0.11407 -0.97633,-0.21628 l -5.4146,-7.3449 -4.371,-8.01 c -0.21053,-0.33035 -0.11407,-0.76579 0.21629,-0.97633 z" />
        <path
           id="rect5635"
           style="fill:url(#linearGradient2504)"
           d="m 380.32,366.77 c 0.21053,0.33036 0.11407,0.76579 -0.21629,0.97633 l -7.4874,5.1909 -7.8675,4.5946 c -0.33035,0.21053 -0.76579,0.11408 -0.97633,-0.21628 -0.21053,-0.33036 -0.11407,-0.7658 0.21628,-0.97633 l 7.3924,-5.34 7.9625,-4.4456 c 0.33035,-0.21053 0.7658,-0.11407 0.97633,0.21629 z" />
      </g>
    </g>
    <g
       id="g400"
       transform="translate(173.18851,-52.992109)">
      <circle
         id="circle392"
         style="fill:url(#linearGradient402);stroke:url(#linearGradient404);stroke-width:2.64573;stroke-linecap:round;stroke-linejoin:round"
         cx="-115.06814"
         cy="108.72855"
         r="54.239319" />
      <ellipse
         id="ellipse394"
         style="fill:url(#radialGradient406);stroke-width:0.192855"
         cx="-101.16448"
         cy="145.46748"
         rx="12.344231"
         ry="11.377028" />
      <g
         id="g398"
         transform="translate(-157.42175,-15.768902)">
        <circle
           id="circle396"
           style="fill:url(#linearGradient408);stroke:url(#linearGradient410);stroke-width:2.64573;stroke-linecap:round;stroke-linejoin:round"
           cx="42.63163"
           cy="124.21943"
           r="54.239319" />
      </g>
    </g>
    <ellipse
       id="ellipse438"
       style="fill:url(#radialGradient510);stroke:url(#radialGradient512);stroke-width:0.264581"
       cx="15.816627"
       cy="38.696632"
       rx="10.19319"
       ry="9.3926315" />
  </g>
</svg>
